<?xml version="1.0" encoding="utf-8"?>
<?xml-stylesheet type="text/xsl" href="rss1.xsl"?>
<rss version="2.0" xmlns:atom="http://www.w3.org/2005/Atom" xmlns:content="http://purl.org/rss/1.0/modules/content/" xmlns:dc="http://purl.org/dc/elements/1.1/" xmlns:media="http://search.yahoo.com/mrss/">
<channel>
 <title>Getty</title>
 <link>http://www.gettyimg.com/</link>
 <atom:link href="http://www.gettyimg.com/" rel="self" type="application/rss+xml" />

 
                <item>
                <title><![CDATA[【PRORES HD】Poppy - X (ProRes 1080)]]></title>
                <link><![CDATA[https://sharemania.us/threads/poppy-x-prores-1080.231368/]]></link>
                <description><![CDATA[<article>
<blockquote class="messageText SelectQuoteContainer ugc baseHtml">
<div style="text-align: center"><img src="https://i.imgur.com/kY4cosj.gif" class="bbCodeImage LbImage" alt="[​IMG]" data-url="https://i.imgur.com/kY4cosj.gif" style=""><br>
​</div>
<div class="ToggleTriggerAnchor bbCodeSpoilerContainer">
<button type="button" class="button bbCodeSpoilerButton ToggleTrigger Tooltip JsOnly" data-target="> .SpoilerTarget"><span>Spoiler: <span class="SpoilerTitle">ProRes</span></span></button>
<div class="SpoilerTarget bbCodeSpoilerText">
<div class="bbCodeBlock bbCodeCode">
<div class="type">Code:</div>
<pre>Format                                   : MPEG-4
Format profile                           : QuickTime
Codec ID                                 : qt   2005.03 (qt  )
File size                                : 3.64 GiB
Duration                                 : 2 min 56 s
Overall bit rate mode                    : Variable
Overall bit rate                         : 177 Mb/s
Encoded date                             : UTC 2018-11-05 06:41:08
Tagged date                              : UTC 2018-11-05 06:42:50
Writing library                          : Apple QuickTime
TIM                                      : 01:00:00:00
TSC                                      : 24000
TSZ                                      : 1001

Video
ID                                       : 1
Format                                   : ProRes
Format version                           : Version 0
Format profile                           : 422 HQ
Codec ID                                 : apch
Duration                                 : 2 min 56 s
Bit rate mode                            : Variable
Bit rate                                 : 176 Mb/s
Width                                    : 2 048 pixels
Height                                   : 858 pixels
Display aspect ratio                     : 2.40:1
Frame rate mode                          : Constant
Frame rate                               : 23.976 (24000/1001) FPS
Color space                              : YUV
Chroma subsampling                       : 4:2:2
Scan type                                : Progressive
Bits/(Pixel*Frame)                       : 4.168
Stream size                              : 3.60 GiB (99%)
Writing library                          : Apple
Language                                 : English
Encoded date                             : UTC 2018-11-05 06:41:08
Tagged date                              : UTC 2018-11-05 06:41:08
Color primaries                          : BT.709
Transfer characteristics                 : BT.709
Matrix coefficients                      : BT.709

Audio
ID                                       : 2
Format                                   : PCM
Format settings                          : Little / Signed
Codec ID                                 : sowt
Duration                                 : 2 min 56 s
Bit rate mode                            : Constant
Bit rate                                 : 1 536 kb/s
Channel(s)                               : 2 channels
Channel layout                           : L R
Sampling rate                            : 48.0 kHz
Bit depth                                : 16 bits
Stream size                              : 32.3 MiB (1%)
Language                                 : English
Encoded date                             : UTC 2018-11-05 06:41:08
Tagged date                              : UTC 2018-11-05 06:41:08

Other
ID                                       : 3
Type                                     : Time code
Format                                   : QuickTime TC
Duration                                 : 2 min 56 s
Frame rate                               : 23.976 (24000/1001) FPS
Time code of first frame                 : 01:00:00:00
Time code, striped                       : Yes
Language                                 : English
Encoded date                             : UTC 2018-11-05 06:41:08
Tagged date                              : UTC 2018-11-05 06:41:08</pre>
</div><div style="text-align: center">​</div></div>
</div><div style="text-align: center"><br>
<div class="bbCodeBlock bbCodeVfcHH HiddenContent">
<div class="attribution type">Hidden Content:</div>
<blockquote>You must reply before you can see the hidden data contained here.</blockquote>
</div></div>
<div class="messageTextEndMarker">&nbsp;</div>
</blockquote>
</article>]]></description>
                <author><![CDATA[fstambuk]]></author>
                </item>

                
                <item>
                <title><![CDATA[【Albums (lossless)】WAV - Taylor Swift - 1989 (Taylor's Version) | CD 16bit / 44.1kHz]]></title>
                <link><![CDATA[https://sharemania.us/threads/taylor-swift-1989-taylors-version-cd-16bit-44-1khz.231367/]]></link>
                <description><![CDATA[<article>
<blockquote class="messageText SelectQuoteContainer ugc baseHtml">
<div style="text-align: center"><img src="https://is1-ssl.mzstatic.com/image/thumb/Music116/v4/c1/31/18/c131181b-ca3e-d945-16b2-48ea6bcd64d4/23UM1IM11868.rgb.jpg/1200x1200bf-60.jpg" class="bbCodeImage LbImage" alt="[​IMG]" data-url="https://is1-ssl.mzstatic.com/image/thumb/Music116/v4/c1/31/18/c131181b-ca3e-d945-16b2-48ea6bcd64d4/23UM1IM11868.rgb.jpg/1200x1200bf-60.jpg" style=""><br>
<span style="font-size: 15px"><b>Taylor Swift – 1989 (Taylor's Version)</b></span><br>
<br>
<b>Label/Cat#:</b> Taylor Swift, LLC<br>
<b>Year:</b> 2023-10-27<br>
<b>Genre:</b> Pop<br>
<br>
<span style="font-size: 12px"><b>Tracklist</b></span><br>
<b>1.</b> Welcome To New York (Taylor's Version) <i>(03:32)</i><br>
<b>2.</b> Blank Space (Taylor's Version) <i>(03:51)</i><br>
<b>3.</b> Style (Taylor's Version) <i>(03:51)</i><br>
<b>4.</b> Out Of The Woods (Taylor's Version) <i>(03:55)</i><br>
<b>5.</b> All You Had To Do Was Stay (Taylor's Version) <i>(03:13)</i><br>
<b>6.</b> Shake It Off (Taylor's Version) <i>(03:39)</i><br>
<b>7.</b> I Wish You Would (Taylor's Version) <i>(03:27)</i><br>
<b>8.</b> Bad Blood (Taylor's Version) <i>(03:31)</i><br>
<b>9.</b> Wildest Dreams (Taylor's Version) <i>(03:40)</i><br>
<b>10.</b> How You Get The Girl (Taylor's Version) <i>(04:07)</i><br>
<b>11.</b> This Love (Taylor's Version) <i>(04:10)</i><br>
<b>12.</b> I Know Places (Taylor's Version) <i>(03:15)</i><br>
<b>13.</b> Clean (Taylor's Version) <i>(04:31)</i><br>
<b>14.</b> Wonderland (Taylor's Version) <i>(04:05)</i><br>
<b>15.</b> You Are In Love (Taylor's Version) <i>(04:27)</i><br>
<b>16.</b> New Romantics (Taylor's Version) <i>(03:50)</i><br>
<b>17.</b> "Slut!" (Taylor's Version) (From The Vault)<br>
<b>18.</b> Say Don’t Go (Taylor's Version) (From The Vault)<br>
<b>19.</b> Now That We Don’t Talk (Taylor's Version) (From The Vault)<br>
<b>20.</b> Suburban Legends (Taylor's Version) (From The Vault)<br>
<b>21.</b> Is It Over Now? (Taylor's Version) (From The Vault)<br>
<div class="bbCodeBlock bbCodeVfcHH HiddenContent">
<div class="attribution type">Hidden Content:</div>
<blockquote>You must reply before you can see the hidden data contained here.</blockquote>
</div></div>
<div class="messageTextEndMarker">&nbsp;</div>
</blockquote>
</article>]]></description>
                <author><![CDATA[Yennefer]]></author>
                </item>

                </channel></rss>